<svg id="Layer_1" data-name="Layer 1" xmlns="http://www.w3.org/2000/svg" viewBox="0 0 1450.39 1600"><defs><style>.cls-1{fill:#2e1a34;}</style></defs><path class="cls-1" d="M1290.5,1280.4a16.53,16.53,0,0,1,15.87,12.45h38l1.08,1.14,37.54,37.47c-1.27-19.65-8.3-40.85-15.78-62.38H1263.82l-19.22,19.22a17.49,17.49,0,0,1,3.41,10.35,16.61,16.61,0,1,1-33.21,0,17.09,17.09,0,0,1,15-17.11,15.14,15.14,0,0,1,1.65,0,16.25,16.25,0,0,1,7.91,2.27l20.64-20.7,1-1h103.91l-1.74-5H1227.37l-38.22,38.22v75.07l-.57.8-8.13,14.27v56.71l7.9-.06v-59.83l1.14-1,10.23-10.35v-35.89l1.71-1,16.84-9.72.79-.51h109.48l1,1.08,15.07,15.18a16.1,16.1,0,0,1,7.33-1.87,17,17,0,1,1-16.6,17.06,17.36,17.36,0,0,1,3.92-10.86l-13.65-13.65H1221l-14.33,8.3v34.81l-1,1-10.35,10.35v56.87l19.91-.16-10.35-10.36-1.08-1.13v-38.5l1.08-1,22.29-22.29a17.09,17.09,0,0,1-6.43-13.37,16.53,16.53,0,1,1,16.55,17,15.76,15.76,0,0,1-3.52-.4l-23,22.92v32.7l14,13.88h21l.35.35h3.56l-9.31-9.33a15.75,15.75,0,0,1-3,.28,16.8,16.8,0,0,1-16.55-17.06c0-8.84,6.44-16.18,14.79-17.06a17.22,17.22,0,0,1,1.76,0c9.14,0,16.49,7.63,16.49,17.06a17.2,17.2,0,0,1-6.65,13.77l12.29,12.31,11.08,0c2-.4,3.9-.82,5.81-1.26l-14.79-14.79-.91-1v-1.25l-1-42.82v-1.77l1.42-1.13,18.6-14.16a17.23,17.23,0,0,1-2.16-8.25c0-9.43,7.36-17.06,16.49-17.06a17,17,0,0,1,0,34.07,16.1,16.1,0,0,1-9.89-3.47l-17.52,13.48,1,39.58,16.61,16.6a167.06,167.06,0,0,0,35.5-13.75l-5.58-5.58h-3.81a16.55,16.55,0,0,1-32.82-3.53,17,17,0,0,1,14.85-17.06,15.13,15.13,0,0,1,1.65,0,16.79,16.79,0,0,1,16.32,13.59h6.77l.91,1,8,8q4.86-2.94,9.4-6.21a16.92,16.92,0,0,1,14.81-16.38,17.42,17.42,0,0,1,1.77,0,16.19,16.19,0,0,1,2,.13,157.73,157.73,0,0,0,20.57-27.21,63.17,63.17,0,0,0,8.61-30l-41.63-41.66h-34.69a16.46,16.46,0,0,1-32.82-2.33c0-9.43,7.36-17.06,16.49-17.06Z" transform="translate(-39.81 -43.91)"/><path class="cls-1" d="M1353.6,1213H1200.51l-1.08-1.08-16.15-16.15a16.48,16.48,0,0,1-28.67-11.66c0-8.84,6.56-16.25,14.9-17.12a14.23,14.23,0,0,1,1.6,0c9.13,0,16.6,7.69,16.6,17.12a17.09,17.09,0,0,1-.85,5.29l16.44,16.66h151.84a62,62,0,0,1,4.13-10.29H1210l-1.08-1-9.1-9-1-1.08v-19.23l-11.94-6.93h-29.52l-11.66,11.54v39.7l-1,1.08-45.45,45.33v177.61l9.15,9.14,12.94-.11-15.54-15.52-1-1.13v-137.8l1-1,26.5-26.5a17,17,0,0,1-3.64-10.58c0-9.43,7.35-17.06,16.49-17.06a17.07,17.07,0,0,1,0,34.12,15.63,15.63,0,0,1-7.45-2l-25.93,25.77v132.29l19.38,19.35,16.3-.15-23.06-23.07-1-1V1304.68l1-1.08,82.64-82.69,1.14-.91h145a44,44,0,0,1,.45-7Z" transform="translate(-39.81 -43.91)"/><path class="cls-1" d="M1153.4,1337.5v-36.85l1.08-1,63.36-63.3.91-1H1356c-.28-.92-.56-1.84-.83-2.76a47.84,47.84,0,0,1-1.39-5.71h-143l-80.47,80.53V1415.7l26.78,26.79,16.44-.16v-58.7l.4-.74,8.3-14.39v-75.76l1-1.08,40.39-40.49,1.13-.91h136c-.89-2.64-1.76-5.27-2.61-7.91H1221.59l-61.25,61.26v33.78c7.54,1.61,13.2,8.69,13.2,16.94A16.81,16.81,0,0,1,1157,1371.4c-9.14,0-16.5-7.63-16.5-17.07a17.13,17.13,0,0,1,12.91-16.83Z" transform="translate(-39.81 -43.91)"/><path class="cls-1" d="M414.67,1620.9l1.08-1,14.39-14.45a18.88,18.88,0,0,1-2.22-8.82,18.57,18.57,0,1,1,6.66,14.28l-12.91,12.91v20.1h12.88l37.85-37.84v-44.59l1-1,16.49-16.38a18.93,18.93,0,0,1-1.71-7.68,18.53,18.53,0,1,1,5.69,13.43l-14.5,14.44V1609l-1,1-33.82,33.93h19.57L496.11,1612a18.74,18.74,0,1,1,10.7,3.25,18,18,0,0,1-3.7-.35h-.17l-28.92,29h19a18.56,18.56,0,0,1,27.64,0h18.73V1425.26l2.56-2.51L578,1386.64l2.5-2.5H676l2.61,2.5,11.83,11.66H993.81l37.82-37.65a18.94,18.94,0,0,1-.68-4.72,18.86,18.86,0,1,1,12.4,17.51l-39.7,39.87-2.56,2.45H683l-2.45-2.45-11.71-11.77H587.69l-30.88,30.88V1643.9h7.85V1443.06l1.08-1L594,1413.83l1-1h75.92l1.14,1,26.27,26.33,1,1v14.73a17.52,17.52,0,1,1-6.94,0V1444l-24.28-24.23H597.81L571.59,1446V1643.9H584.9V1447.37l2.5-2.56,9.44-9.27,2.5-2.61H656.5a8.54,8.54,0,0,1,3,.51h.17A17.52,17.52,0,1,1,642,1451c0-.22,0-.41,0-.63H606.62l-4.32,4.38V1643.9h13.42a17.45,17.45,0,0,1,11.89-6.52,17.22,17.22,0,0,1,1.76,0,17.65,17.65,0,0,1,13.71,6.52h10.86v-15.11l-17.18-17.18a17.32,17.32,0,0,1-7.85,1.93A17.52,17.52,0,1,1,646.49,1596a17.2,17.2,0,0,1-4.32,11.26l17.63,17.69,1.08,1v18h11.75a17.66,17.66,0,0,1,14-6.92,17.37,17.37,0,0,1,13.9,6.92h14v-21.37l-15.36-15.41a17.34,17.34,0,0,1-12.91,6,17.58,17.58,0,1,1,0-35.15,17.44,17.44,0,0,1,17.46,17.52,18,18,0,0,1-1,5.51l17.63,17.52,1.08,1.08v24.27h17a17.43,17.43,0,0,1,25.09,0H773l-76.93-77h-41l-1.14-1-15.29-15.42a17.28,17.28,0,0,1-10.13,3.24,17.55,17.55,0,1,1,17.52-17.46,17.35,17.35,0,0,1-2.67,9.22L658,1559.91h41l.91,1.08,80.93,80.71,1,1.13v1.07h8.3V1637l-84.85-84.8H691.47a17,17,0,0,1-5.68,1.14,17.52,17.52,0,1,1,17.51-17.52,17.2,17.2,0,0,1-2.78,9.39H708l1.14,1,86.9,87,1,1v9.66h7.62v-14.66l-90-90.14-1.08-1v-14.22l-14.45-14.44H648l-1-1-13.2-13.19a17.5,17.5,0,1,1,5.86-3.87l11.15,11h51.24l1,1.13,16.5,16.38,1,1.14v14.16l90,90.14,1.08,1v17.56h6.94v-19.27l-69-69-.63-.74-.23-.91-.68-2.56a17.34,17.34,0,0,1-14.16-17.18,17.55,17.55,0,1,1,21.27,17.07l69.44,69.32,1,1.14v22.17h6.71v-22.28l-53.86-54-1.08-1v-61.2L760,1488.19a17.08,17.08,0,0,1-10.69,3.81,17.55,17.55,0,1,1,17.52-17.57,17.12,17.12,0,0,1-2.33,8.3l18.82,18.83,1,1.08v61.14l53.91,53.91,1,1.08v25.13h17.48a17.57,17.57,0,0,1,24.3,0h14.47v-2.61L881.14,1627H864l-1-1-56.93-56.82-1-1v-17.8a16.56,16.56,0,0,1-12.8-16.21,16.67,16.67,0,1,1,19.74,16.27v15L867,1620.08H884l1,1,16.26,16.32,1.08,1v5.51h7.51v-8.69l-69.33-69.33-1-1v-54.09l-22.06-22.07a19.66,19.66,0,0,1-10.18,2.85,20.27,20.27,0,1,1,15.52-7.4v.18l22.64,22.46,1,1.08V1562l69.33,69.16,1,1.08v11.65h8.7v-28.31a20.23,20.23,0,1,1,7,.8v27.51h17.59c1.78-.49,3.56-1,5.33-1.47v-59.32L939,1566.68H906.62l-1-1.08-38.05-38-1.14-1.08V1492.4a20.19,20.19,0,1,1,6.94,0v31.23l36.29,36.11h32.19l1,1,18.6,18.65,1,.91v60.18q8.19-2.35,16.27-4.83,1.68-11.08,3.43-21.72l-8-8-1-1v-23.77L941,1548.94a19.84,19.84,0,0,1-10.8,3.18,20.08,20.08,0,1,1,0-40.15,20.15,20.15,0,0,1,15.92,32.25l33,33,1.08,1v23.71l3.38,3.39q2-12,4.18-23.37v-28a18.56,18.56,0,1,1,13.74-33.06q1.38-5,2.79-9.79l-4.93-4.87h-42.2l-1-1-14-14.16A20,20,0,1,1,931,1454.36a20.14,20.14,0,0,1,20.14,20.08,19.91,19.91,0,0,1-4,11.94l13,12.91h42.15l1,1,3.31,3.31c8.69-27.42,18.48-47.59,29.67-58.54H1019l-15.13,15.08a18.39,18.39,0,0,1,4.44,11.94,18.57,18.57,0,1,1-37.14,0,18.45,18.45,0,0,1,18.48-18.54,19,19,0,0,1,8.76,2.16l16.66-16.55,1.09-1.08h44.47l1,1.08,4.07,4.07,14.36-.08-1.48-1.49-1-.91-.12-1.42-2.78-188.36-.12-1.54,1.08-1.13,46.64-46.52v-42.15l1.08-1,22.07-22.24,1-1h60.46l1,1,17.86,17.8a15.76,15.76,0,0,1,6.83-1.48,17.07,17.07,0,1,1-16.55,17.06,17.07,17.07,0,0,1,4.15-11.14L1204,1142.42h-54.65l-20.08,20.07v42.09l-1,1-46.58,46.69,2.78,185.52,5.25,5.3,9.09-.06-5.4-5.41-1.08-.91V1253.21l1.08-1,45.38-45.5v-39.52l1-1,13.54-13.59,1.08-1.08h34.24l.91.51,14.45,8.25,1.76,1v20.47l6.94,7.11h150.51c8.26-13.19,20.14-25.2,29.8-36.36,7.47-9,2.89-18.41-4.36-27.22h-78.31l-1-1-18.94-18.94h-52.15l-1-1.13-40.6-40.61-1.14-1v-24.23l-27.64-27.69-1.08-1V884.56a17.05,17.05,0,0,1-11-16.09,16.53,16.53,0,1,1,18,16.95v121.37l27.7,27.64,1,1.08v24.17l38.73,38.67h52.09l1.14,1,18.77,18.88h69.14c-3.19-3.37-6.4-6.61-9-9.67h-54.13l-1.48-1.48L1297,1086.58h-39.47l-1.48-1.48L1238,1067a15.77,15.77,0,0,1-8.87,2.79,17.07,17.07,0,0,1,0-34.12c9.14,0,16.49,7.63,16.49,17.06a17.71,17.71,0,0,1-1.08,6l17.35,17.4h39.52l1.54,1.48,20.47,20.53h43.82c-.33-2.38.46-4.54,2.88-6.44,4.16-3.36,8.43-6.4,12.51-9.43h-49.31l-1.54-1.48-23.6-23.65a16.65,16.65,0,0,1-15.24,10.4,16.86,16.86,0,0,1-16.61-17.06c0-9.43,7.47-17.23,16.61-17.23a16.59,16.59,0,0,1,15,9.9l.57-.52,29.17,29.24h57.32a38,38,0,0,0,9-14.45h-37a16.39,16.39,0,0,1-15,10.12,16.86,16.86,0,0,1-16.61-17.06c0-9.43,7.47-17.23,16.61-17.23a16.79,16.79,0,0,1,16.21,13.76h37.39c-.27-6.15-2.77-11.57-6.17-16.78h-15.58v-1.53l-5.12-2.9H1216.47l-1.53-1.42-17.69-17.24-1.65-1.59V782l-18.48-18.54a14.83,14.83,0,0,1-2.51.23,15.55,15.55,0,1,1,11.72-5.75l18.2,18.15,1.48,1.53v223.58l14.61,14.16h161l1.14.8,6.6,3.64h2.39a102.34,102.34,0,0,1-8.5-12.23h-12.09l-1.48-1.7-5.17-5a16.31,16.31,0,0,1-13.65,7.56,16.8,16.8,0,0,1-16.55-17.06c0-9.43,7.41-17.17,16.55-17.17a16.64,16.64,0,0,1,16.26,14.5l8.36,8.42H1379a32.72,32.72,0,0,1-.9-7c-1.19-6.15-4-13.17-6.41-20.18l-7.58-7.57H1340.4l-36.68,36.86-1.14-1.14a16.32,16.32,0,0,1-14.44,9,17,17,0,0,1,0-34.06,16.54,16.54,0,0,1,15.58,11.37l31-31,1.48-1.48H1368a17.85,17.85,0,0,1,2.5-9h-40.76l-21,21.1-1.13,1h-46.24l-17.12,17.12a16.89,16.89,0,0,1,1.37,6.77c0,9.43-7.36,17.12-16.5,17.12s-16.55-7.69-16.55-17.12a16.81,16.81,0,0,1,16.55-17.06,16.2,16.2,0,0,1,11.09,4.43l17.12-17.17,1-1.08h46.52l21.1-21.1,1-1h50.34c6.42-4.81,14.07-6.77,22.23-8.07a16.68,16.68,0,0,1,16.38-15.08,16.09,16.09,0,0,1,8.81,2.73l63.66-63.69a97.1,97.1,0,0,0-3.24-9.84l-41.93,42-1.54,1.53h-25.31l-34.57,34.53-1.54,1.59h-71a18.37,18.37,0,0,1,.23,3.58c0,9.43-7.35,17.06-16.49,17.06a16.86,16.86,0,0,1-16.61-17.06c0-8.84,6.56-16.24,14.9-17.12a18.5,18.5,0,0,1,11.09,3.07h73.48l34.64-34.58L1412,875h25.31l43.34-43.24q-2.28-4.8-5-9.86l-39,38.94-1,1H1406l-39.76,39.69-1,1.09H1327l-1-1.09-13.93-13.93h-65.23l-1-1-8.58-8.47a16.28,16.28,0,0,1-11.72,5c-9.14,0-16.55-7.68-16.55-17.11A16.81,16.81,0,0,1,1225.52,849c9.14,0,16.49,7.63,16.49,17.07a17.55,17.55,0,0,1-1.08,5.91l8.7,8.65H1315l1,1.13,14,13.94h32.31L1402,856l1.08-1.08h29.69L1472,815.63q-2.6-4.49-5.49-9.12l-41.22,41.32-1.13.91H1371.8l-8.88,8.81A17.44,17.44,0,1,1,1352.4,854a17.91,17.91,0,0,1,4,.45l11.49-11.48,1-1.14h52.49l41.31-41.31q-3-4.61-6.19-9.34L1416,831.68l-1.6,1.53h-64.72l-33.55,33.61-1.59,1.65h-38.62l-1.48-1.65-43.5-43.39a15.24,15.24,0,1,1,12.34-2.45l37.08,37h29.85l33.62-33.73,1.53-1.53H1410l40.4-40.4q-3.53-5-7.24-10.08L1407,808.47l-1,1.08h-66.54l-32.25,32.14-1,1h-31l-.91-1-16.38-16.15-1-1.14V764.17l-8.76-8.81a15.34,15.34,0,0,1-13.82,8.7,15.25,15.25,0,1,1,15.07-17.18l13.42,13.37,1,1.13v60.18L1278,835.72h25.36l32-32.19,1.14-1h66.54L1439,766.6c-1.72-2.33-3.48-4.67-5.25-7l-29.83,29.85-1.93,1.94h-80.76l-10.47,10.4A15.16,15.16,0,1,1,1297,793a15.43,15.43,0,0,1,2.56.28l13.88-13.76,2-2h80.81l29-29q-2.77-3.6-5.62-7.23l-25.16,25.18-2.1,2.05h-94a7,7,0,0,1-5.51-2.73,15.3,15.3,0,0,1-11-14.73,15.22,15.22,0,1,1,30,3.52h74.79L1411,730.18q-3.17-4-6.39-8l-22.77,22.75-1,1h-55.28l-1-1-40-40h-81.27l-11.83,11.94-1.08,1h-39.7l-1-1-11.66-11.6-1.09-1.14v-45l1.09-1,22.12-22.12a15.17,15.17,0,1,1,10.58,4.26,15.8,15.8,0,0,1-4.32-.68L1144,662v39.19l9.5,9.66h34.12l12-11.94,1.08-1h86.78l.91,1,40.1,40h49.53l22.27-22.29-5.71-7.1-20.76,20.8-1.09,1H1332.9l-1-1-42.09-42.09H1183.73a15,15,0,0,1-14.33,10.41,15.24,15.24,0,1,1,15-17.4h108.46l1,1,42,42.08h34.07l20.24-20.2-3.84-4.74-18.9,18.86-1,1.08h-26.85l-.91-1.08-18.54-18.49-1.08-1V669.37L1307,657.31h-44.53l-.91-1L1241,635.76a15,15,0,0,1-9.1,3.18A15.27,15.27,0,1,1,1247,623.7a15,15,0,0,1-1.65,6.6l20,20h44.42l1.08,1L1325,665.5l1,1v29.41l16.49,16.49h21l18.4-18.4L1369,678.1l-.36.37a15.27,15.27,0,1,1-14.34-10.24,15.07,15.07,0,0,1,9.3,3.21q-5.38-6.66-10.72-13.28h-12.23l-1.08-1-30-30h-3.12a15.25,15.25,0,1,1-.23-7h6.31l1.08,1.14,29.86,29.86h3.83c-16.22-20.3-31.64-40.13-44.83-58.7H1177.24l-2.61-2.61-59.78-59.72h-20.93L1039.15,585v67.45h23.09v66.94h-23.09v78.77h.63a15.21,15.21,0,1,1-1.88,17.4h-16.21V719.41H974.94V831.28l27.25,27.25h113.06l16.94,16.89v124.66h-16.66v23.2l30.14,20.7a16.33,16.33,0,0,1,11.32-4.72,16.81,16.81,0,0,1,16.55,17.07c0,9.43-7.41,17.11-16.55,17.11s-16.49-7.68-16.49-17.11a17.19,17.19,0,0,1,1.31-6.6L1110.19,1028l-1.54-1.13v-26.79h-17.52V941l-26.56-7-26,26v150.71l-36.4,36.45v32.36H979.55v-42.2l22.63-22.69h-21V1053l-16.38-4.43-33.33,33.55v76l-15.07,15H438.29V1054.73l-26-26H238.21V901.4h6.54V878.48a20.19,20.19,0,0,1-2.22-9.27,20.45,20.45,0,1,1,40.89,0,21.18,21.18,0,0,1-.11,2.27h1.59V901.4h10.47l1.88,86.45,46.23-46.13V726l37.59-37.53V666.18H312.26V644.11H266.7v-.17a14.48,14.48,0,0,1-3.75.4,15.22,15.22,0,1,1,0-30.43,14.94,14.94,0,0,1,6.54,1.48H303l14.5-14.45h269l2.67-10.23L569.6,579.39a12.63,12.63,0,0,1-1.76.23,15.28,15.28,0,1,1,2-30.32h27l24.62,24.63v26h13v69.5H567.27l4.89,8.53h77.41V590l21.32,21.45H840.77l28.89-16.72H786.52V579.22H744.94V549.93h31.91l17.51-17.52h1V498.35l3.12-3.08L832.69,461V434l-38.1-38.16-3-3V47.73q-11.93-1.17-24.12-2V191.69l14.45,25.19,1,1.59V357.75l-2,2.05-19.74,19.62a15.12,15.12,0,0,1,1.59,6.49,15.3,15.3,0,1,1-15.35-15.3,14.56,14.56,0,0,1,2.73.34L769,351.89V222.22l-14.44-25.13-1-1.59V44.93q-7.75-.39-15.64-.62v178.5l9.56,16.49.45.91v11a15,15,0,1,1-6.93,1.3V241.86l-9.62-16.49-.39-.8V44.13q-6.09-.14-12.23-.19V277.82l33,33.1a3.44,3.44,0,0,1,1,1.93,15.15,15.15,0,0,1-4.15,29.8A15.22,15.22,0,0,1,744,313L712.75,281.8l-1-1.08V43.91q-7.12,0-14.33.11V226.19l-1,1L687,236.71l3.59,13.48a15.32,15.32,0,1,1-7.57-1l-3.3-12.62-.57-1.94,1.43-1.36,10-10V44.15q-6.62.15-13.31.42V229l-1.7,1.08-19.57,11.26v30.82l16.38,16.38h32l1,1.14L720,304.39l1.08,1v50.9L720,357.34l-21,21.1a15.63,15.63,0,0,1,.91,5.29,15.21,15.21,0,1,1-15.18-15.25A14.85,14.85,0,0,1,695,372.64l19.22-19.17V308.26l-12.86-12.8H669.46l-1-.91L649.9,275.9l-1-1v-37.6l1.71-1.13,19.56-11.26V44.86q-10.12.47-20.41,1.16V211.71l-1,1.08L636.48,225v53.64l37.42,37.53a15.09,15.09,0,1,1-3.13,9A14.28,14.28,0,0,1,671,323l-40.44-40.44-1-1V222.11l1-.91,12.34-12.34V46.5l-8.7.69V189.58l-1,1-9.67,9.61v83.09l30.94,30.94,1,1V417.76l21.73,12.51a15.22,15.22,0,1,1,7.62,28.43,15.18,15.18,0,0,1-12.8-23.43l-21.78-12.51-1.76-1V317.94l-30.83-30.71-1-1.08V197.26l1-1,9.61-9.56V47.81c-4.6.42-9.21.86-13.86,1.34-2.09.22-4.16.46-6.25.69.19,24.83.4,55.4.55,86.23.16,35.74.23,71.74.11,99.47-.06,13.86-.11,25.7-.29,34.35-.08,4.32-.27,7.82-.39,10.46a26.21,26.21,0,0,1-.52,5.69c-.13.5.32,2.64,2.56,5.4a63.88,63.88,0,0,0,9.33,8.71,150.54,150.54,0,0,0,14.79,10.18,3.5,3.5,0,0,1,1.36,1.76,15.09,15.09,0,0,1,6.94,12.74,15.27,15.27,0,1,1-20.59-14.22c-2.14-1.5-4.5-3.16-6.82-5a67.58,67.58,0,0,1-10.35-9.83c-2.81-3.45-5.15-7.25-4-11.61-.13.44.16-1.61.28-4.15s.31-6,.4-10.29c.17-8.58.22-20.34.28-34.18.13-27.69,0-63.69-.11-99.42-.14-31.1-.35-61-.54-85.48q-8.4,1-16.69,2.12V166.09l11.83,20.71.51.79V335.23l33.55,33.39a15.33,15.33,0,1,1-9.61.34L589.79,339l-1-1V189.58l-11.94-20.7-.4-.74V53.73Q565.64,55.29,555,57.07V185.54a15.22,15.22,0,1,1-6.83,7.51,3.58,3.58,0,0,1-.11-1V58.25q-31.49,5.56-61.18,13.13l9.42,9.4,2.05,2v88.43l84,84,2,2v86L595.81,363l1,1.65v43.79l21.1,21.22A15,15,0,0,1,640.23,443a15.3,15.3,0,1,1-30.6,0,13.72,13.72,0,0,1,.23-1.82l-25-24.91-2-2V368.38l-11.48-19.84-1-1.71V263.06l-83.89-83.95-2.1-2V88.57L471.39,75.51q-10.06,2.77-19.92,5.78l18.26,18.26,2,2v84.23l83.71,83.77,2,2V357l13.36,13.37a6.75,6.75,0,0,1,1.14,1.36,15.34,15.34,0,0,1,7.05,12.91,15.24,15.24,0,0,1-30.48,0A15.38,15.38,0,0,1,554,373.11l-8.36-8.36-2-2V277.45l-83.72-83.78-2.05-2V107.34L436.54,86Q423,90.44,409.92,95.29l41.21,41.17,1,1v58l38,38.1,1,1v16.27a15.26,15.26,0,0,1,4.66-.74,15.22,15.22,0,0,1,0,30.43,15.29,15.29,0,0,1-15.24-15.3,14.72,14.72,0,0,1,3.58-9.56V237.64l-38-38-1-1.14V140.38L402.73,98q-4.11,1.58-8.17,3.2l43.49,43.5,1.14,1v53l35.66,35.77,1,1V281.6l15.3,8.76h25l1,.91,19.45,19.62,1.14,1V459l13.71,13.54H774.56L794.06,453a14.83,14.83,0,0,1-2.5-8.19,15.28,15.28,0,1,1,7.45,13l-20.7,20.81-1,1H548.49l-1-1-15.81-15.81-1-1v-147l-17.4-17.52H489.18l-.8-.45-17.74-10.18-1.71-1.08V238.26l-35.77-35.77-1-1v-53L387.61,104l-4.49,1.84,39.29,39.29.91,1v61.25l35,34.92,1,1v36.29l36.57,34.75a15.13,15.13,0,1,1-4.89,5l-37.53-35.89-1.09-1V246.17l-34.86-34.86-1.13-1V149L376.2,108.82c-2.13.93-4.26,1.86-6.37,2.81L411.21,153l1,1.08v59.66l35.6,35.6.91,1.08v36.51l28.95,28.95,1,1v98L495,431.29a15,15,0,0,1,9-3,15.56,15.56,0,1,1-13.48,8.36l-17.85-17.8-1.09-1.08v-98l-28.83-28.89-1.08-1.08V253.22l-35.43-35.43-1.14-1.08V156.88L363,114.7q-6.76,3.1-13.41,6.32l39,39,1.08,1v65.12l37,36.91,1,1.13v58.24h2.1a15.15,15.15,0,1,1-.45,6.94h-8.53V267.1L383.68,230l-1-.91V164L343,124.27c-2,1-4,2-5.92,3l41.48,41.48,1,1v79.4A13.6,13.6,0,0,1,381,249a15.29,15.29,0,1,1-8.36,2.56V172.63l-42-42q-4.2,2.21-8.33,4.47l29.11,29.11,1,.91V270.69l16.89,16.83h49.87V353l17.29,17.29a15.09,15.09,0,0,1,7.91-2.28,15.3,15.3,0,1,1-15.3,15.3,14.93,14.93,0,0,1,2.39-8.07L413.2,356.9l-1-1.14V294.51H366.28l-1.09-1.13-18.71-18.66-1.13-1.13V168L316,138.6q-3.09,1.74-6.13,3.51l27.34,27.34,1.08.91V276l44.93,44.81.91,1V428.05a15.15,15.15,0,0,1,13.08,15,15.22,15.22,0,1,1-30.43,0,15,15,0,0,1,10.41-14.28v-104l-44.87-45-1-1V173.38l-27.67-27.64c-3.23,1.92-6.44,3.85-9.62,5.82L319,176.51l1.08,1.13V284.33l26.45,26.45,1.08,1.14V461.1l22,12.73H412.8l20.36-20.24A15.46,15.46,0,0,1,429,443a15.3,15.3,0,1,1,15.3,15.35,14.55,14.55,0,0,1-5.12-1l-22.41,22.47-1,1H367.59l-.8-.51-24.45-14.11-1.71-1V314.82l-26.5-26.56-1-1V180.42L288,155.32c-.91.58-1.82,1.14-2.72,1.72l22.7,22.7,1.13,1V289.62l20.93,20.87a3.54,3.54,0,0,1,.23,4.72,15.26,15.26,0,0,1,6,12.23,15.22,15.22,0,0,1-30.43,0,15.29,15.29,0,0,1,15.3-15.24c.27,0,.48.05.74.05l-18.83-18.88-1-1V183.6l-22.74-22.71q-6,4-11.89,8.07l22.4,22.38,1,1v160.5l20.25,20.25a15.07,15.07,0,0,1,10-3.87,15.29,15.29,0,0,1,15.13,15.42,15.22,15.22,0,0,1-30.43,0A15.64,15.64,0,0,1,307,379L284.9,356.9l-.91-1.14V195.32L261.7,173q-2.82,2-5.61,4.05L264,185l1.08,1v64.43a15.19,15.19,0,1,1-7-1.53v-60l-7.6-7.61q-9,6.74-17.53,13.74v82.76l37.13,37.14a3.44,3.44,0,0,1,.86,1.59,15,15,0,0,1,2.78,8.7,15.24,15.24,0,1,1-18.25-14.9l-28.32-28.55-1.08-1v-80q-11.79,9.94-22.87,20.42v28.07a15.07,15.07,0,0,1,10.75,14.44,15.22,15.22,0,1,1-17.74-15V227.91q-12.54,12.32-24.12,25.31v28.32l8,8.08H219.1l.91,1.65,11.54,20,.46.8v40.2l19.33,19.4A15.17,15.17,0,1,1,243.21,385a14.88,14.88,0,0,1,2.79-8.81l-19.85-20-1.14-1V314l-10-17.41H177.24l-1.08-1-10.07-10.07-1-1.13V261.18c-1.73,2-3.43,4-5.12,6.07v39L175.7,322h8.14a15.12,15.12,0,1,1,1.7,10.46H171.32l-1.53-1.54-18.71-18.76-1.48-1.54V280.23q-3.47,4.47-6.83,9v35.81l47.09,47.2a14.94,14.94,0,0,1,8.82-3,15.38,15.38,0,0,1,15.24,15.41,15.23,15.23,0,1,1-29.86-3.58L133.9,330.9l-1.54-1.48V303.81q-9.29,13.53-17.68,27.6v20.14l18.08,18.25a15.19,15.19,0,0,1,3.64-.57,15.38,15.38,0,0,1,15.24,15.42A15.3,15.3,0,1,1,124,375.72l-18.31-18.31-1.54-1.54v-5.95q-10,18.49-18.48,37.82l30,30h46.81a15,15,0,0,1,8.93-2.9,15.21,15.21,0,1,1-12.57,23.83H107l-3-3-27-27a533.42,533.42,0,0,0-20.53,65.15h51l1,1,20.88,20.87a15.07,15.07,0,0,1,11.26-5.12,15.28,15.28,0,1,1-15.3,15.3,14.94,14.94,0,0,1,.57-3.86l-21.21-21.16H54.81A567.39,567.39,0,0,0,44.72,537L68,513.75A15.2,15.2,0,0,1,80.72,490.2a15.25,15.25,0,1,1,0,30.49A15,15,0,0,1,73,518.47l-29.6,29.72q-1.53,14.07-2.42,28.4l32.19-32.3,1.14-1h25.82v67.57l-1,1-8.41,8.42a15.21,15.21,0,0,1,2.9,8.81,15.39,15.39,0,0,1-15.42,15.25,15.22,15.22,0,0,1,0-30.43,15.5,15.5,0,0,1,7.34,1.82l7.68-7.62V550.26h-16L44,583.42l-1.13,1.08H40.54a648.93,648.93,0,0,0,1.36,82.74l1.53-1.47,11.15-11.15,1.48-1.48h49.25l21.89-21.83a15.88,15.88,0,0,1-.23-1.82,15.22,15.22,0,0,1,30.43,0,15.28,15.28,0,0,1-15.24,15.29,15.09,15.09,0,0,1-9.9-3.86l-21.15,21.15-1.43,1.48H60.37l-8,8v73.2q2.8,14.87,6.26,29.87l10.23-10.25v-4.27a15,15,0,0,1-5.46-11.49,15.25,15.25,0,1,1,15.93,15.08v5l-1.54,1.54L61.47,786.56c1.5,6.07,3.06,12.16,4.72,18.27a15.25,15.25,0,0,1,29.44,5.68A15.14,15.14,0,0,1,80.45,825.7a15.61,15.61,0,0,1-9.21-3.08l0,0c1.18,4,2.41,8.06,3.66,12.1H93.25L105,823.08V720.31l-18.6-18.6a15.46,15.46,0,0,1-8.19,2.39,15.27,15.27,0,0,1,0-30.54,15.48,15.48,0,0,1,15.42,15.35,14.85,14.85,0,0,1-.8,4.44l21.1,21.1,1.48,1.48V827.34l-1.48,1.54L99.1,843.66l-1.48,1.48H78.18C79.1,848,80,850.79,81,853.62h.16A15.38,15.38,0,0,1,96.37,869a15,15,0,0,1-5.76,11.86q2.94,7.93,6,15.89h16.49l1,1L133,916.63a15.11,15.11,0,0,1,8.7-2.73,15.22,15.22,0,1,1-15.19,15.19,14.82,14.82,0,0,1,1.82-7.11l-18-18.2H99.42c9.68,24.11,23.91,47.83,40,71.86A15.47,15.47,0,0,1,154.15,991a15,15,0,0,1-.86,5q5.27,7.57,10.64,15.24l10.81-10.67V974.87a15.16,15.16,0,1,1,6.88,0v28.44l-1,1L168,1017.06c5.7,8.14,11.42,16.36,17.07,24.68H395.13l1.48,1.54,17.12,17.12,1.54,1.48v121.88l6.08,10.58H901.92l1.48,1.53,13.48,13.48h108.34l36.45-36.34v-39.3l1.48-1.54,39.36-39.41,1.53-1.53h103.11l1.54,1.53,21.38,21.33h45.1l1.71,1.59,15.81,15.81h34.81L1329,1133l18.09,18.08a16.15,16.15,0,0,1,4.89-.79c9.14,0,16.49,7.63,16.49,17.06s-7.35,17.06-16.49,17.06a16.86,16.86,0,0,1-16.61-17.06,17.48,17.48,0,0,1,3.24-10L1323.29,1142h-35l-1.42-1.54-16-15.86h-45.16l-1.53-1.54-21.33-21.33H1108.2l-36.12,36.23v39.35l-1.65,1.6-39.35,39.35-1.54,1.6h-117l-1.48-1.6-13.54-13.48H415.31l-1.47-2.5-8.42-14.5-.57-1.25V1066.2l-14.05-14H192.06c6.06,9.14,12,18.42,17.66,27.87l.62-.62,1.48-1.53h159l1.59,1.53L383,1090l1.48,1.48v105.22l33.1,33H893.68l1.25.63,16.61,9.55H1037.8l53.17-53.17v-38.56l1.6-1.48,32.13-32.14,1.59-1.53h81.27l1.54,1.53,19.73,19.74h37.88l1.59,1.65,17.8,17.86a16.13,16.13,0,0,1,5.69-1.09,16.71,16.71,0,0,1,16.49,17c0,9.43-7.35,17.12-16.49,17.12s-16.61-7.69-16.61-17.12a17.41,17.41,0,0,1,2.73-9.33l-15.58-15.64h-37.71l-1.53-1.53-19.85-19.74h-72.63l-29.17,29v38.61l-1.54,1.54-56.19,56.19-1.53,1.54H908.65l-1.25-.63L891,1240.18H413.22l-1.54-1.59-36.17-36L374,1201V1095.78l-7.56-7.45H216.21l-1,1c13.23,23.06,24.7,47.17,32.65,72.79a18.62,18.62,0,1,1,6.24,29.53,338.89,338.89,0,0,1,1,35.91H360.26l35.83,35.71h460.6l24.39,14.16H997v90.43H800.84l-13.76-7.9v-53.12H652.69v61H563l-45.44-45.39H256.35l-9,9q-.87,7.71-1.81,15.58a18.63,18.63,0,1,1-1.12,9.28c-3.21,26-7,53.18-11.16,80.65a18.51,18.51,0,0,1-2.64,34.4V1533l-1.53,1.53-14.56,14.56q-2.16,11.81-4.33,23.34,18.93,9.52,38.39,18.29a18.6,18.6,0,1,1,34.13,14.68c3,1.2,5.95,2.35,8.93,3.52v-42l-18.49-18.43a18.61,18.61,0,1,1,10.3-16.66,18.48,18.48,0,0,1-4.78,12.4L297.42,1563l1.14,1v47.66c3.09,1.2,6.21,2.36,9.32,3.53v-91.28l-32.58-32.65a18.94,18.94,0,0,1-10.07,2.79,18.71,18.71,0,1,1,15-7.62l33.62,33.5,1,1.13v96.74c2.32.85,4.67,1.67,7,2.5v-57l1-1.08L355,1530.06l1-1h14.68a18.55,18.55,0,0,1,15.64-11.15c.47,0,1.05,0,1.53,0a18.57,18.57,0,1,1-18.65,18.55v-.4H358.79l-30,30.14v56.59c3,1,5.91,2.06,8.88,3.07v-35.77l1-1.14L365,1562.76l1-.91H413.9l16.38-16.44v-.17a18.56,18.56,0,1,1,16.26,9.79,18.37,18.37,0,0,1-11.83-4.33l-16.95,17-1.08,1.14H368.85L344.63,1593v35.2c1.65.55,3.34,1.06,5,1.6v-3.42l1.14-1,20.3-20.3a19,19,0,0,1-1.93-8.42,18.78,18.78,0,1,1,6.26,13.82l-18.77,18.83V1632c7.14,2.27,14.33,4.53,21.55,6.65a18.46,18.46,0,0,1,23.46,5.26H414.7v-23Zm759.92-827.85a15.22,15.22,0,1,1-15.24,15.19A15.14,15.14,0,0,1,1174.59,793.05Zm-62.39,30.43a15.22,15.22,0,1,1,15.24-15.24A15.24,15.24,0,0,1,1112.2,823.48Zm0-124.72a15.25,15.25,0,1,1,15.24-15.24A15.24,15.24,0,0,1,1112.21,698.76Zm1.26-58.52a15.22,15.22,0,1,1,15.3-15.25A15.24,15.24,0,0,1,1113.47,640.24ZM562.54,458.42a15.3,15.3,0,1,1,15.3-15.36A15.25,15.25,0,0,1,562.54,458.42Zm184.78,0a15.3,15.3,0,1,1,15.35-15.36A15.34,15.34,0,0,1,747.32,458.42ZM501.8,550a15.27,15.27,0,1,1-15.24,15.36A15.28,15.28,0,0,1,501.8,550Zm-62.62.4a15.27,15.27,0,0,1,0,30.54,15.27,15.27,0,1,1,0-30.54Zm-59.89-.4a15.27,15.27,0,0,1,0,30.54,15.27,15.27,0,0,1,0-30.54ZM317,550a15.27,15.27,0,1,1-15.36,15.36A15.33,15.33,0,0,1,317,550Zm-54.1,120.74A15.27,15.27,0,1,1,247.62,686,15.29,15.29,0,0,1,262.92,670.72Zm0,65A15.24,15.24,0,1,1,247.62,751,15.28,15.28,0,0,1,262.92,735.73ZM141.67,885.93a15.22,15.22,0,1,1,15.41-15.3A15.43,15.43,0,0,1,141.67,885.93Zm45.39-319a15.28,15.28,0,0,1,15.19-15.36,15.3,15.3,0,1,1,0,30.6A15.19,15.19,0,0,1,187.06,566.93Zm17.85,199.62a15.22,15.22,0,1,1,15.19-15.13A15.24,15.24,0,0,1,204.91,766.55Zm0-64.9a15.28,15.28,0,0,1-15.35-15.18,15.27,15.27,0,1,1,30.54,0A15.14,15.14,0,0,1,204.91,701.65Zm0-56.81a15.22,15.22,0,1,1,0-30.43,15.22,15.22,0,0,1,0,30.43ZM1051.2,1276a18.6,18.6,0,1,1-18.65,18.6A18.55,18.55,0,0,1,1051.2,1276ZM261.57,1131.45a18.6,18.6,0,1,1,18.6-18.66A18.65,18.65,0,0,1,261.57,1131.45Zm78.66-37.2a18.6,18.6,0,0,1,0,37.2,18.6,18.6,0,1,1,0-37.2Zm0,99a18.63,18.63,0,1,1,18.54-18.66A18.7,18.7,0,0,1,340.23,1193.27Zm407.95,139.51a18.57,18.57,0,1,1-18.6,18.6A18.65,18.65,0,0,1,748.18,1332.78Zm-65,2.61a18.57,18.57,0,1,1-18.59,18.54A18.56,18.56,0,0,1,683.17,1335.39ZM505.9,1493.67a18.6,18.6,0,1,1,18.6-18.6,18.59,18.59,0,0,1-18.6,18.6ZM503,1335.39a18.57,18.57,0,1,1-18.6,18.54,18.61,18.61,0,0,1,18.6-18.54ZM262.72,1433.9a18.6,18.6,0,1,1,18.59-18.66A18.61,18.61,0,0,1,262.72,1433.9Zm64-98.51a18.57,18.57,0,1,1-18.65,18.54A18.46,18.46,0,0,1,326.75,1335.39Zm0,98.51a18.6,18.6,0,1,1,0-37.2,18.6,18.6,0,0,1,0,37.2Zm58.35-98.51a18.57,18.57,0,1,1-18.54,18.54A18.56,18.56,0,0,1,385.1,1335.39Zm0,98.51a18.6,18.6,0,1,1,18.59-18.66A18.61,18.61,0,0,1,385.11,1433.9Zm61-98.51a18.57,18.57,0,1,1-18.66,18.54A18.55,18.55,0,0,1,446.13,1335.39Zm0,98.51a18.6,18.6,0,1,1,18.6-18.66A18.71,18.71,0,0,1,446.13,1433.9Z" transform="translate(-39.81 -43.91)"/><path d="M220.1,1517.5q-1.18,6.81-2.38,13.56l2.38-2.39Z" transform="translate(-39.81 -43.91)"/><path class="cls-1" d="M207.79,1584.7c-4,20.81-8,40.7-11.95,59.15h157a997.71,997.71,0,0,1-145-59.15Z" transform="translate(-39.81 -43.91)"/><path class="cls-1" d="M1021.6,652.48V577.81l2.45-2.51,60-60,2.5-2.56H1122l2.56,2.56,59.65,59.78h106.23c-1-1.56-2-3.12-3-4.65,1.93-4.24,3.61-8.45,5.11-12.64h-84.24l-2.1-2L1167,516.56a15.38,15.38,0,1,1,14.16-5.63l32.93,32.93h82.71a139.89,139.89,0,0,0,4-25.43l-2.77-2.78a15.2,15.2,0,1,1,1.66-26.45q-1-7.36-2.24-14.73h-27.34l-23.6,23.72a15.36,15.36,0,0,1,.4,3.35,15.22,15.22,0,1,1-15.19-15.18,15,15,0,0,1,11.49,5.29l23-23.21,1.09-.91h28.9q-1-5.22-2-10.42a15.54,15.54,0,0,1-2.75.24,15.21,15.21,0,0,1-4.38-29.78c-.76-2.78-1.56-5.55-2.38-8.32h-19l-19,19-.11.06a16.47,16.47,0,0,1,.39,3.47,15.21,15.21,0,1,1-15.18-15.24,14.88,14.88,0,0,1,8.87,2.9l19.17-19.11,1.53-1.54h20.17q-5.91-18.42-13.35-36.51h-13l-69.44,69.39c0,.47.11.87.11,1.36a15.21,15.21,0,1,1-15.18-15.24,14.88,14.88,0,0,1,10.06,4l68.59-68.48,1.48-1.53h12.94q-8.91-20.26-19.78-39.91a15.26,15.26,0,0,1-30.52-.36,14.79,14.79,0,0,1,2.27-7.9l-22.46-22.47-1.43-1.42V245.66q-6.25-7.53-12.85-14.88v45.66l-1.59,1.48-29.12,29.35V352l-1.48,1.53-85.08,85a15.35,15.35,0,0,1,1,5.74,15.13,15.13,0,0,1-15.12,15.24,15.24,15.24,0,1,1,0-30.48,15,15,0,0,1,7.05,1.88l83.14-83.27V302.89l1.54-1.54,29.18-29.23V219.5q-5.85-6.13-12-12.1v61.53l-1.53,1.65-36.69,36.68v8.93a15.14,15.14,0,1,1-10.4-2.5v-10.8l1.53-1.54,36.63-36.63V197.45q-3.08-2.85-6.2-5.64v48.91l-1.54,1.6-17.06,17.06a15.2,15.2,0,1,1-28,8.3,15.33,15.33,0,0,1,15.3-15.3,15,15,0,0,1,4.21.68l16.6-16.66V182.68q-19-16.12-40.1-30.8l-6.7,6.72V297.26l-1.59,1.48-20.42,20.47A15.11,15.11,0,0,1,1048.89,344a15.22,15.22,0,1,1,0-30.43,14.86,14.86,0,0,1,2.33.17l20.93-20.81V154.17l1.54-1.54,6.78-6.77q-7-4.7-14.3-9.19l-16,16v99.19a4.92,4.92,0,0,1-.17.85,15.21,15.21,0,0,1,12.68,15,15,15,0,0,1-15.13,15.12,15.1,15.1,0,0,1-7.16-28.55,5.09,5.09,0,0,1-.68-2.44V148.31l1.48-1.48L1057,131.08q-7.31-4.35-14.85-8.52L1022,142.68V354.41l19,19a15.63,15.63,0,0,1,6.59-1.48,15.28,15.28,0,0,1,0,30.55,15.43,15.43,0,0,1-15.41-15.3,14.94,14.94,0,0,1,1.48-6.37l-20.53-20.65-1.53-1.48V138.44l1.53-1.53,19.48-19.52q-13.11-6.92-26.83-13.28l-13.63,13.63V252.19a15.05,15.05,0,0,1,7.9,13.25,15.22,15.22,0,1,1-18.43-14.9V113.36l1.54-1.48,12.39-12.39q-11.87-5.22-24.18-10l-13.23,13.23V275.56l39.07,39.08a5.24,5.24,0,0,1,1.48,3.41,15.69,15.69,0,0,1,2.67,8.53,15.22,15.22,0,0,1-30.43,0,15.5,15.5,0,0,1,9.27-14.22l-31.05-31.05-1.54-1.54V98.52L949.14,97l11.53-11.53q-10.6-3.9-21.54-7.46V286.67l19.39,19.67,1.48,1.48V357.3L982,370a15.08,15.08,0,0,1,2.79-.28,15,15,0,1,1-12.63,6.59l-20-11.54-2.55-1.48V312.09l-19.4-19.45-1.53-1.54V74.69q-6.49-2-13.08-3.87v217l15.18,26.28.68,1.14V376.8l52.84,52.83c.18,0,.32-.11.51-.11a15.22,15.22,0,1,1,0,30.43,15.1,15.1,0,0,1-15.19-15.13,15.36,15.36,0,0,1,4.33-10.75l-51.42-51.41L921,381.18V317.94l-15-26-.79-1.2V68c-1.52-.4-3-.81-4.55-1.2v291.9l-1.54,1.48-18.54,18.71A15.49,15.49,0,0,1,881.8,385a15.25,15.25,0,1,1-8.47-13.65l16.83-16.83V64.17q-6.21-1.5-12.51-2.9V253.52a9.86,9.86,0,0,1-.12,1.53,15,15,0,0,1,4.27,10.41,15.22,15.22,0,1,1-25-11.55V57q-7.44-1.41-15-2.67V289.76L864,311.94a14.58,14.58,0,0,1,3.92-.69,15.28,15.28,0,1,1-15.24,15.36,15.86,15.86,0,0,1,1-5.4l-23.72-23.66-2-2.11V52.14Q820.18,51,812.37,50V384.21l38.16,38.1,3,3v44.42l-3,3-34.35,34.24v25.48h135.3l23.37,23.37v96.69ZM1054,486.37a15.22,15.22,0,1,1-15.24,15.18A15.28,15.28,0,0,1,1054,486.37ZM869.17,516.8a15.22,15.22,0,1,1,15.3-15.25A15.14,15.14,0,0,1,869.17,516.8Zm62.45,0a15.22,15.22,0,1,1,0-30.43,15.22,15.22,0,1,1,0,30.43Zm59.72-30A15.24,15.24,0,1,1,976.09,502,15.18,15.18,0,0,1,991.34,486.77Z" transform="translate(-39.81 -43.91)"/><path class="cls-1" d="M1490.2,864.66l-53.65,53.68C1458,907,1490.4,893.83,1490.2,864.66Z" transform="translate(-39.81 -43.91)"/><path d="M1224,307.27a14.33,14.33,0,0,1,12.13,1,494,494,0,0,0-33.86-49.6v26.85L1224,307.27Z" transform="translate(-39.81 -43.91)"/></svg>